<svg xmlns="http://www.w3.org/2000/svg" width="37.04mm" height="10.92mm" viewBox="0 0 105 30.97"><defs><style>.cls-1{fill:#595757;}.cls-2{fill:#0081cc;}</style></defs><g id="レイヤー_2" data-name="レイヤー 2"><g id="レイヤー_1-2" data-name="レイヤー 1"><path class="cls-1" d="M0,21.92H3.88A2.42,2.42,0,0,1,6.6,24.54a2.4,2.4,0,0,1-2.72,2.61H1.18v3.63H0Zm1.18,4.24H3.49c1.34,0,1.93-.57,1.93-1.62s-.59-1.63-1.93-1.63H1.18Z"/><path class="cls-1" d="M9.64,24.21a3,3,0,0,1,3.11,3.36,3,3,0,0,1-3.11,3.35,3,3,0,0,1-3.11-3.35A3,3,0,0,1,9.64,24.21Zm0,5.78c1.1,0,2-.86,2-2.42s-.9-2.43-2-2.43-2,.88-2,2.43S8.53,30,9.64,30Z"/><path class="cls-1" d="M19.6,30.78H18.48l-1.3-5.1h0l-1.29,5.1H14.72l-2.05-6.42h1.16l1.45,5.25h0l1.29-5.25h1.15l1.34,5.25h0l1.43-5.25h1.1Z"/><path class="cls-1" d="M27.38,28.74a2.56,2.56,0,0,1-2.74,2.18c-2.05,0-3-1.42-3.08-3.37a3.09,3.09,0,0,1,3-3.34c2.27,0,3,2.12,2.91,3.68h-4.8a1.88,1.88,0,0,0,2,2.1,1.54,1.54,0,0,0,1.67-1.25Zm-1-1.79a1.84,1.84,0,0,0-1.85-1.81A1.81,1.81,0,0,0,22.68,27Z"/><path class="cls-1" d="M28,24.36h1v1.35h0a2.33,2.33,0,0,1,2.36-1.5v1.12c-1.7,0-2.32,1-2.32,2.59v2.86H28Z"/><path class="cls-1" d="M37.18,28.74a2.56,2.56,0,0,1-2.74,2.18c-2,0-3-1.42-3.08-3.37a3.09,3.09,0,0,1,3-3.34c2.27,0,3,2.12,2.91,3.68h-4.8a1.88,1.88,0,0,0,2,2.1,1.54,1.54,0,0,0,1.67-1.25Zm-1-1.79a1.84,1.84,0,0,0-1.85-1.81A1.81,1.81,0,0,0,32.48,27Z"/><path class="cls-1" d="M43.85,30.78H42.8v-.87h0a2.15,2.15,0,0,1-2,1c-2,0-3-1.56-3-3.37s1-3.34,2.93-3.34a2.45,2.45,0,0,1,2.07,1h0v-3.3h1.05Zm-3-.79c1.43,0,2-1.22,2-2.42s-.57-2.43-2-2.43-1.92,1.23-1.92,2.48S39.51,30,40.87,30Z"/><path class="cls-1" d="M51.43,21.74c2.78,0,4.37,2.05,4.37,4.61S54.21,31,51.43,31s-4.37-2-4.37-4.62S48.65,21.74,51.43,21.74Zm0,7.24c1.49,0,2.06-1.3,2.06-2.63s-.57-2.63-2.06-2.63S49.37,25,49.37,26.35,49.94,29,51.43,29Z"/><path class="cls-1" d="M56.47,24.34h2v.88h0a2.46,2.46,0,0,1,2-1.06c2.15,0,2.32,1.56,2.32,2.49v4.13H60.77V27c0-.62-.21-1.13-1.05-1.13s-1.14.69-1.14,1.38v3.51H56.47Z"/><path class="cls-1" d="M67.59,27.8c0,1.05.69,1.38,1.68,1.38.69,0,1.41-.25,1.41-.9,0-.8-1.26-.93-2.54-1.29s-2.59-.92-2.59-2.56c0-1.93,2-2.69,3.61-2.69s3.55.87,3.55,2.85H70.4c0-.79-.73-1.06-1.43-1.06-.49,0-1.11.17-1.11.75s1.27.81,2.56,1.17S73,26.4,73,28c0,2.25-1.91,3-3.86,3s-3.84-.9-3.84-3.17Z"/><path class="cls-1" d="M75.67,23.54H73.56V21.92h2.11Zm-2.11.8h2.11v6.44H73.56Z"/><path class="cls-1" d="M80.79,25.71h-1.3v2.93c0,.5.3.62.76.62.18,0,.36,0,.54,0v1.55c-.38,0-.77.06-1.15.06-1.8,0-2.26-.53-2.26-2.27V25.71H76.32V24.34h1.06V22.4h2.11v1.94h1.3Z"/><path class="cls-1" d="M83.29,28.08a1.36,1.36,0,0,0,1.44,1.46,1.24,1.24,0,0,0,1.2-.71h2A3.06,3.06,0,0,1,84.7,31a3.24,3.24,0,0,1-3.52-3.43,3.37,3.37,0,0,1,3.47-3.38c2.31,0,3.46,1.73,3.36,3.92ZM85.9,26.9a1.29,1.29,0,0,0-1.25-1.32,1.39,1.39,0,0,0-1.36,1.32Z"/><polygon class="cls-2" points="94.15 21.73 89.29 30.97 91.01 30.97 95.88 21.73 94.15 21.73"/><path class="cls-2" d="M.63,17.86h20A4.67,4.67,0,0,0,24.53,16c.25-.38.37-.56.3-.8,0,0-3.4-11.88-3.53-12.32s.21-.44.29-.44h.49a.7.7,0,0,1,.69.48c.08.3,2.82,9.87,2.89,10.1s.39.35.58,0S32.71.78,32.84.51s0-.51-.35-.51H12.64A5.07,5.07,0,0,0,8.75,1.75a3.11,3.11,0,0,0-.31.46.64.64,0,0,0-.06.51L11.9,15a.3.3,0,0,1-.27.42H11a.68.68,0,0,1-.6-.49c-.1-.32-2.82-9.82-2.88-10a.3.3,0,0,0-.55,0C6.87,5.08.45,17.23.35,17.43A.29.29,0,0,0,.63,17.86Z"/><path class="cls-2" d="M25.72,17.86H37.47c.34,0,.58-.21.48-.56L35.41,8.43a.5.5,0,0,0-.81-.18l-9.09,9.14C25.34,17.56,25.35,17.86,25.72,17.86Z"/><path class="cls-2" d="M39.93,17.86h12a.25.25,0,0,0,.26-.34c0-.21-4.84-16.91-4.9-17.11A.56.56,0,0,0,46.72,0h-3.6a.46.46,0,0,0-.38.16c-.11.1-6.18,6.21-6.28,6.31a.37.37,0,0,0-.07.42l3,10.64A.49.49,0,0,0,39.93,17.86Z"/><path class="cls-2" d="M58,0H81.57c.3,0,.36.19.15.57l-5,9.5c-.16.3-.35.28-.42,0s-2-6.87-2.05-7.13a.33.33,0,0,0-.62,0c-.14.25-7.66,14.52-7.75,14.69a.51.51,0,0,1-.43.3H55.56c-.28,0-.41-.22-.27-.48S62.71,3.31,62.82,3.09s0-.56-.43-.27l-9.52,7.37c-.37.27-.65.05-.43-.35s4.85-9.21,5-9.5A.52.52,0,0,1,58,0Z"/><path class="cls-2" d="M94.18,0a.4.4,0,0,1,.37.63c-.2.37-8.73,16.56-8.87,16.81a.66.66,0,0,1-.61.42H81.69c-1.88,0-3.26-.58-4-1.74a4.22,4.22,0,0,1,0-4.43L80,7.2a14.51,14.51,0,0,1,4.65-5.55,10.17,10.17,0,0,1,6-1.65Z"/><path class="cls-2" d="M87.87,17.86a.4.4,0,0,1-.36-.64L96.37.42A.66.66,0,0,1,97,0h3.37a4.5,4.5,0,0,1,4,1.74,4.24,4.24,0,0,1,0,4.43c-.89,1.68-1.12,2.11-2.37,4.49a14.6,14.6,0,0,1-4.65,5.55,10.19,10.19,0,0,1-6,1.65Z"/></g></g></svg>