<?xml version="1.0" encoding="utf-8"?>
<!-- Generator: Adobe Illustrator 23.0.0, SVG Export Plug-In . SVG Version: 6.00 Build 0)  -->
<svg version="1.1" id="Layer_1" xmlns="http://www.w3.org/2000/svg" xmlns:xlink="http://www.w3.org/1999/xlink" x="0px" y="0px"
	 viewBox="0 0 134.8 132.4" style="enable-background:new 0 0 134.8 132.4;" xml:space="preserve">
<style type="text/css">
	.st0{fill:#1E729B;}
</style>
<path class="st0" d="M58.7,112.9l-0.4,1.7L58.7,112.9c-1-0.2-1.9,0.4-2.1,1.4c-0.2,1,0.4,1.9,1.4,2.1c0,0,0,0,0,0c0.1,0,0.2,0,0.3,0
	c0.8,0,1.6-0.6,1.7-1.4C60.3,114,59.6,113.1,58.7,112.9L58.7,112.9z M58.7,112.9"/>
<path class="st0" d="M72.2,113.5l0.2,1.8L72.2,113.5c-1,0.1-1.7,1-1.6,1.9c0.1,0.9,0.9,1.6,1.8,1.6c0.1,0,0.1,0,0.2,0l0,0
	c1-0.1,1.7-1,1.5-2C74.1,114.1,73.2,113.4,72.2,113.5L72.2,113.5z M72.2,113.5"/>
<path class="st0" d="M65.5,113.7C65.5,113.7,65.4,113.7,65.5,113.7c-1,0-1.8,0.7-1.9,1.7c0,1,0.7,1.8,1.7,1.9c0,0,0.1,0,0.1,0
	c0.9,0,1.7-0.7,1.8-1.7C67.2,114.6,66.4,113.7,65.5,113.7L65.5,113.7z M65.5,113.7"/>
<path class="st0" d="M52.1,111.1L52.1,111.1c-0.9-0.3-1.9,0.1-2.3,1.1c-0.3,0.9,0.2,1.9,1.1,2.3c0.2,0.1,0.4,0.1,0.6,0.1
	c0.7,0,1.4-0.4,1.7-1.2C53.5,112.4,53.1,111.4,52.1,111.1L52.1,111.1z M52.1,111.1"/>
<path class="st0" d="M78.9,112.2l0.4,1.7L78.9,112.2c-1,0.2-1.5,1.2-1.3,2.2c0.2,0.8,0.9,1.3,1.7,1.3c0.1,0,0.3,0,0.4-0.1
	c0,0,0,0,0,0c0.9-0.3,1.5-1.2,1.2-2.2C80.9,112.5,79.9,112,78.9,112.2L78.9,112.2z M78.9,112.2"/>
<path class="st0" d="M85.3,110l0.7,1.6L85.3,110c-0.9,0.4-1.3,1.4-0.9,2.3c0.3,0.7,0.9,1.1,1.6,1.1c0.2,0,0.5,0,0.7-0.1c0,0,0,0,0,0
	c0.9-0.4,1.3-1.4,0.9-2.3C87.3,110,86.2,109.6,85.3,110L85.3,110z M85.3,110"/>
<path class="st0" d="M45.4,29.1c0.3,0,0.6-0.1,0.8-0.2c0.9-0.5,1.2-1.5,0.7-2.4c-0.5-0.9-1.5-1.2-2.4-0.7l0,0
	c-0.9,0.5-1.2,1.5-0.7,2.4C44.1,28.8,44.7,29.1,45.4,29.1L45.4,29.1z M45.4,29.1"/>
<path class="st0" d="M24.8,49c0.3,0.1,0.5,0.2,0.8,0.2c0.6,0,1.3-0.3,1.6-1l0-0.1c0.4-0.9,0.1-1.9-0.8-2.4c-0.9-0.4-1.9-0.1-2.4,0.8
	C23.6,47.4,24,48.5,24.8,49L24.8,49z M24.8,49"/>
<path class="st0" d="M22.3,55.6c0.2,0.1,0.4,0.1,0.6,0.1c0.7,0,1.4-0.5,1.7-1.2l0-0.1c0.3-0.9-0.2-1.9-1.2-2.2
	c-0.9-0.3-1.9,0.2-2.2,1.2C20.9,54.3,21.4,55.3,22.3,55.6L22.3,55.6z M22.3,55.6"/>
<path class="st0" d="M28.3,42.8c0.3,0.2,0.7,0.3,1,0.3c0.5,0,1.1-0.3,1.4-0.7l0,0c0.6-0.8,0.4-1.9-0.4-2.5c-0.8-0.6-1.9-0.4-2.5,0.4
	l1.4,1.1l-1.4-1C27.4,41.1,27.6,42.2,28.3,42.8L28.3,42.8z M28.3,42.8"/>
<path class="st0" d="M39.3,33c0.4,0,0.7-0.1,1.1-0.4c0.8-0.6,1-1.7,0.4-2.5c-0.6-0.8-1.7-1-2.5-0.4l0,0c-0.8,0.6-0.9,1.7-0.3,2.5
	C38.3,32.7,38.8,33,39.3,33L39.3,33z M39.3,33"/>
<path class="st0" d="M20.8,82.5c0.2,0.8,0.9,1.3,1.7,1.3c0.2,0,0.3,0,0.5-0.1c0.9-0.3,1.5-1.3,1.2-2.2c-0.3-0.9-1.2-1.5-2.2-1.2
	C21,80.5,20.5,81.5,20.8,82.5C20.7,82.5,20.8,82.5,20.8,82.5L20.8,82.5z M20.8,82.5"/>
<path class="st0" d="M34,37.7c0.5,0,0.9-0.2,1.3-0.5c0.7-0.7,0.7-1.8,0-2.5c-0.7-0.7-1.8-0.7-2.5,0l0,0c-0.7,0.7-0.7,1.8,0,2.5
	C33.1,37.5,33.5,37.7,34,37.7L34,37.7z M34,37.7"/>
<path class="st0" d="M22.7,74.8c-0.1-1-1-1.6-2-1.5c-1,0.1-1.7,1-1.6,2l0,0.1c0.1,0.9,0.9,1.5,1.8,1.5c0.1,0,0.2,0,0.3,0
	C22.2,76.7,22.9,75.8,22.7,74.8L22.7,74.8z M22.7,74.8"/>
<path class="st0" d="M20.5,69.7C20.5,69.7,20.5,69.7,20.5,69.7c1,0,1.8-0.8,1.8-1.7l0-0.1c0-1-0.8-1.8-1.8-1.8c-1,0-1.8,0.8-1.8,1.8
	C18.8,68.9,19.5,69.7,20.5,69.7L20.5,69.7z M20.5,69.7"/>
<path class="st0" d="M20.9,62.6c0.1,0,0.2,0,0.3,0c0.8,0,1.6-0.6,1.7-1.5c0,0,0-0.1,0-0.1c0.1-1-0.5-1.9-1.5-2c-1-0.1-1.9,0.5-2,1.5
	C19.3,61.5,19.9,62.4,20.9,62.6L20.9,62.6z M20.9,62.6"/>
<path class="st0" d="M104.5,43.3c0.3,0.5,0.9,0.8,1.5,0.8c0.3,0,0.7-0.1,1-0.3c0.8-0.6,1-1.7,0.5-2.5l-1.5,1l1.5-1
	c-0.6-0.8-1.7-1-2.5-0.5C104.2,41.4,104,42.5,104.5,43.3L104.5,43.3z M104.5,43.3"/>
<path class="st0" d="M113.6,61.2c-1,0.1-1.7,1-1.6,2l0,0.1c0.1,0.9,0.9,1.5,1.8,1.5c0.1,0,0.2,0,0.3,0c1-0.1,1.6-1,1.5-2
	C115.4,61.7,114.6,61,113.6,61.2L113.6,61.2z M113.6,61.2"/>
<path class="st0" d="M110.6,56.2L110.6,56.2c0.2,0.8,0.9,1.3,1.7,1.3c0.2,0,0.3,0,0.5-0.1c0.9-0.3,1.5-1.3,1.2-2.2l0,0
	c-0.3-0.9-1.3-1.5-2.2-1.2C110.9,54.2,110.3,55.2,110.6,56.2L110.6,56.2z M110.6,56.2"/>
<path class="st0" d="M108.1,49.5c0.3,0.6,0.9,1,1.6,1c0.3,0,0.5-0.1,0.8-0.2c0.9-0.4,1.2-1.5,0.8-2.4l-1.6,0.7l1.6-0.8
	c-0.4-0.9-1.5-1.3-2.4-0.9C108,47.5,107.7,48.6,108.1,49.5L108.1,49.5z M108.1,49.5"/>
<path class="st0" d="M100.1,37.8c0.3,0.4,0.8,0.5,1.3,0.5c0.4,0,0.9-0.2,1.2-0.5c0.7-0.7,0.7-1.8,0-2.5c-0.7-0.7-1.8-0.8-2.5-0.1
	C99.4,35.9,99.4,37,100.1,37.8L100.1,37.8z M100.1,37.8"/>
<path class="st0" d="M114.2,68.6c-1,0-1.8,0.7-1.8,1.7c0,1,0.7,1.8,1.7,1.9c0,0,0.1,0,0.1,0c0.9,0,1.7-0.7,1.8-1.7l0-0.1
	C115.9,69.4,115.2,68.6,114.2,68.6L114.2,68.6z M114.2,68.6"/>
<path class="st0" d="M88.7,29.1L88.7,29.1c0.3,0.2,0.6,0.2,0.9,0.2c0.6,0,1.2-0.3,1.6-0.9c0.5-0.9,0.1-1.9-0.7-2.4l-0.9,1.6l0.9-1.6
	c-0.9-0.5-1.9-0.2-2.4,0.7C87.6,27.5,87.9,28.6,88.7,29.1L88.7,29.1z M88.7,29.1"/>
<path class="st0" d="M94.7,33L94.7,33c0.3,0.3,0.7,0.4,1.1,0.4c0.5,0,1.1-0.2,1.4-0.7c0.6-0.8,0.4-1.9-0.3-2.5l0,0
	c-0.8-0.6-1.9-0.5-2.5,0.3C93.8,31.2,94,32.4,94.7,33L94.7,33z M94.7,33"/>
<path class="st0" d="M128.9,95.4l-8.3-8.3c-0.7-0.7-1.6-1.1-2.7-1.1c-1,0-1.9,0.4-2.7,1.1l-0.2,0.2l-0.5-0.5
	c-0.7-0.7-1.2-1.5-1.6-2.3c0-0.1-0.1-0.2-0.1-0.3c-0.3-0.8-0.4-1.6-0.4-2.4v-2.4c0.2,0.1,0.3,0.1,0.5,0.2c0.1,0,0.2,0,0.3,0
	c0.8,0,1.6-0.6,1.7-1.5c0.2-1-0.4-1.9-1.4-2.1c-0.4-0.1-0.8,0-1.2,0.2c-0.1-2.5-1.1-4.9-2.9-6.7l-8.1-8.1c-1.8-1.8-4.2-2.8-6.8-2.8
	c-2,0-3.9,0.6-5.5,1.7l-0.9-0.9V39.1c0-2.4-0.9-4.8-2.5-6.6c-1.1-1.3-1.8-3-1.8-4.7v-1.5h0.1c2.1,0,3.7-1.7,3.7-3.7V10.7
	c0-2.1-1.7-3.7-3.7-3.7H51c-2.1,0-3.7,1.7-3.7,3.7v11.8c0,2.1,1.7,3.7,3.7,3.7h0.3v0.8c0,1.9-0.7,3.7-2.1,5.1l-3.6,3.6
	c-1.9,1.9-2.9,4.4-2.9,7.1v11.4c0,1.6,0.4,3,1,4.3c-2.4,0.1-4.5,1.1-6.2,2.8l-8.1,8.1c-1.9,1.9-2.9,4.4-2.9,7.1v5.1
	c0,1.9-0.7,3.7-2.1,5.1l-0.5,0.5c0,0,0,0,0,0l-0.2-0.2C23,86.4,22,86,21,86c-1,0-1.9,0.4-2.7,1.1L10,95.4c-1.5,1.5-1.5,3.8,0,5.3
	l2.9,2.9c0.7,0.7,1.8,0.7,2.5,0c0.7-0.7,0.7-1.8,0-2.5l-2.9-2.9c-0.1-0.1-0.1-0.2,0-0.3l8.3-8.3c0.1-0.1,0.2-0.1,0.3,0l1.4,1.5h0
	l19.8,19.8l2.2,2.2c0.1,0.1,0.1,0.2,0,0.3l-8.3,8.3c-0.1,0.1-0.2,0.1-0.3,0l-15.6-15.6c-0.7-0.7-1.8-0.7-2.5,0
	c-0.7,0.7-0.7,1.8,0,2.5l15.6,15.6c0.7,0.7,1.6,1.1,2.7,1.1c1,0,1.9-0.4,2.7-1.1l8.3-8.3c1.5-1.5,1.5-3.8,0-5.3l-0.1-0.1l1.1-1.1
	c1.2-1.2,2.9-2,4.6-2.1c2.4-0.2,4.7-1.2,6.5-2.9l7.6-7.7c2.2-0.6,3.9-2.4,4.4-4.6c0.8,0.4,1.7,0.6,2.6,0.6c3.3,0,6-2.7,6-6.1v-4.2
	c0.8,0.3,1.6,0.5,2.5,0.5c3.3,0,6-2.7,6-6.1V64.5l5.5,5.5c0.3,0.3,0.8,0.5,1.3,0.5c0.5,0,0.9-0.2,1.3-0.5c0.7-0.7,0.7-1.8,0-2.5
	l-4.5-4.6c0.9-0.5,1.9-0.7,2.9-0.7c1.6,0,3.1,0.6,4.3,1.8L107,72c1.2,1.2,1.9,2.9,1.9,4.6v5.1c0,2.9,1.1,5.5,3.1,7.6l0.6,0.6
	l-2.6,2.6l-15.6,15.6l-0.9-0.9c0,0,0,0,0,0l-0.2-0.2c-1.8-1.8-4.3-2.9-6.9-3.1c-1.6-0.1-3.1-0.8-4.2-1.9l-5.8-5.8
	c-0.7-0.7-1.8-0.7-2.5,0c-0.7,0.7-0.7,1.8,0,2.5l5.8,5.8c1.7,1.7,4,2.8,6.5,2.9c1.7,0.1,3.4,0.9,4.6,2.1l0.1,0.1
	c0,0.1,0.1,0.1,0.1,0.1l0.8,0.8l-0.1,0.1c-1.5,1.5-1.5,3.8,0,5.3l8.3,8.3c0.7,0.7,1.6,1.1,2.7,1.1c1,0,1.9-0.4,2.7-1.1l23.4-23.5
	C130.4,99.3,130.4,96.9,128.9,95.4L128.9,95.4z M113.6,77.8L113.6,77.8l-0.4-0.1L113.6,77.8z M56.6,101.9c-1.1,1.1-2.6,1.8-4.2,1.9
	c-2.6,0.2-5,1.3-6.9,3.1l-1,1l-0.9-0.9c0,0,0,0,0,0L26.4,89.8l0.6-0.6c2-2,3.1-4.7,3.1-7.6v-5.1c0-1.7,0.7-3.4,1.9-4.6l8.1-8.1
	c1.1-1.1,2.7-1.8,4.3-1.8c1,0,2,0.3,2.9,0.7l-4.6,4.6c-0.7,0.7-0.7,1.8,0,2.5c0.3,0.3,0.8,0.5,1.3,0.5c0.5,0,0.9-0.2,1.3-0.5
	l5.4-5.5v22.1c0,3.3,2.7,6.1,6,6.1c0.9,0,1.8-0.2,2.6-0.6c0.4,1.8,1.5,3.2,3,4.1L56.6,101.9z M84.8,76.9c0,1.4-1.1,2.5-2.5,2.5
	c-1.4,0-2.5-1.1-2.5-2.5V57.1c0-1-0.8-1.8-1.8-1.8c-1,0-1.8,0.8-1.8,1.8v29.5c0,1.4-1.1,2.5-2.5,2.5c-1.2,0-2.3-0.9-2.5-2.1V57.1
	c0-1-0.8-1.8-1.8-1.8c-0.3,0-0.6,0.1-0.9,0.2c-0.6,0.3-0.9,0.9-0.9,1.6v29.5c0,0.2,0,0.4,0,0.7v3.6c0,1.4-1.1,2.5-2.5,2.5
	c-1.4,0-2.5-1.1-2.5-2.5V57.1c0-1-0.8-1.8-1.8-1.8c-1,0-1.8,0.8-1.8,1.8v29.5c0,1.4-1.1,2.5-2.5,2.5c-1.4,0-2.5-1.1-2.5-2.5v-33
	c0-1-0.8-1.8-1.8-1.8c-1,0-1.8,0.8-1.8,1.8v6.1c-0.1,0-0.3,0.1-0.4,0.2c-2.3-0.9-3.9-3.1-3.9-5.7V42.8c0-1.7,0.7-3.4,1.9-4.6
	l3.6-3.6c2-2,3.1-4.7,3.1-7.6v-0.8h3.6c1,0,1.8-0.8,1.8-1.8c0-1-0.8-1.8-1.8-1.8H51c-0.1,0-0.2-0.1-0.2-0.2V10.7
	c0-0.1,0.1-0.2,0.2-0.2h33.1c0.1,0,0.2,0.1,0.2,0.2v11.8c0,0.1-0.1,0.2-0.2,0.2H66.8c-1,0-1.8,0.8-1.8,1.8c0,1,0.8,1.8,1.8,1.8h13.7
	v1.5c0,2.6,0.9,5.1,2.7,7.1c1,1.2,1.6,2.7,1.6,4.3V76.9z M126.4,98.2L103,121.7c0,0-0.1,0.1-0.1,0.1c-0.1,0-0.1,0-0.1-0.1l-8.3-8.3
	c-0.1-0.1-0.1-0.2,0-0.3l1.3-1.3l0,0l13.6-13.6l8.5-8.5c0.1-0.1,0.2-0.1,0.3,0l8.3,8.3C126.5,98,126.5,98.1,126.4,98.2L126.4,98.2z
	 M126.4,98.2"/>
<path class="st0" d="M56.7,14.7c-1,0-1.9,0.8-1.9,1.9c0,1,0.8,1.9,1.9,1.9c1,0,1.9-0.8,1.9-1.9C58.5,15.6,57.7,14.7,56.7,14.7
	L56.7,14.7z M56.7,14.7"/>
<path class="st0" d="M118.5,95.6c-1,0-1.9,0.8-1.9,1.9c0,1,0.8,1.9,1.9,1.9c1,0,1.9-0.8,1.9-1.9C120.4,96.4,119.6,95.6,118.5,95.6
	L118.5,95.6z M118.5,95.6"/>
<path class="st0" d="M38.5,113.7c0-1-0.8-1.9-1.9-1.9c-1,0-1.9,0.8-1.9,1.9c0,1,0.8,1.9,1.9,1.9C37.6,115.6,38.5,114.7,38.5,113.7
	L38.5,113.7z M38.5,113.7"/>
</svg>
